<?xml version="1.0" standalone="no"?>
<!DOCTYPE svg PUBLIC "-//W3C//DTD SVG 20010904//EN"
 "http://www.w3.org/TR/2001/REC-SVG-20010904/DTD/svg10.dtd">
<svg version="1.0" xmlns="http://www.w3.org/2000/svg"
 width="842.000000pt" height="595.000000pt" viewBox="0 0 842.000000 595.000000"
 preserveAspectRatio="xMidYMid meet">

<g transform="translate(0.000000,595.000000) scale(0.100000,-0.100000)"
fill="#000000" stroke="none">
<path d="M0 2975 l0 -2975 4210 0 4210 0 0 2975 0 2975 -4210 0 -4210 0 0
-2975z m4524 334 c33 -13 75 -39 94 -58 39 -39 74 -114 70 -150 -3 -25 -5 -26
-88 -28 l-85 -2 -36 39 c-20 21 -49 42 -63 46 -33 8 -93 -1 -112 -17 -16 -13
-19 -69 -4 -69 6 0 27 -8 48 -17 20 -9 44 -17 52 -18 33 -4 167 -67 195 -91
17 -14 37 -31 46 -38 41 -30 75 -198 43 -210 -9 -4 -14 -13 -10 -21 7 -19 -3
-47 -15 -39 -5 3 -9 -2 -9 -10 0 -8 -9 -17 -19 -21 -11 -3 -22 -13 -25 -21 -3
-8 -10 -12 -16 -9 -5 3 -10 2 -10 -3 0 -10 -117 -46 -135 -41 -6 1 -18 -1 -28
-6 -32 -13 -164 11 -224 41 -68 35 -118 94 -127 150 -8 53 1 59 88 63 63 3 71
1 106 -28 46 -37 71 -47 127 -50 43 -3 93 21 93 44 0 18 -35 55 -52 55 -9 0
-21 7 -28 15 -7 8 -23 15 -35 15 -31 0 -87 24 -78 34 4 4 0 4 -9 1 -9 -4 -18
0 -21 9 -4 9 -13 13 -21 10 -19 -7 -48 9 -97 53 -99 89 -102 220 -9 313 45 46
137 89 159 76 5 -4 13 -1 17 5 11 19 150 4 218 -22z m1084 10 c88 -32 184
-107 219 -172 11 -21 1 -59 -15 -55 -4 1 -25 -6 -47 -16 -87 -39 -92 -39 -146
4 -61 48 -108 64 -165 56 -140 -19 -212 -134 -174 -277 6 -22 15 -39 20 -39 6
0 10 -7 10 -15 0 -8 21 -28 48 -45 40 -25 57 -30 115 -30 76 0 115 15 160 62
25 25 34 29 63 23 19 -3 34 -10 34 -16 0 -6 3 -8 8 -6 12 8 97 -37 100 -53 4
-24 -63 -94 -82 -87 -9 4 -16 2 -16 -3 0 -6 5 -10 11 -10 35 0 -62 -66 -136
-92 -62 -23 -164 -31 -223 -17 -102 23 -218 103 -256 177 -9 17 -20 32 -25 32
-14 0 -51 133 -51 186 0 60 25 162 45 184 8 9 15 21 15 27 0 6 22 35 49 65 53
58 148 113 221 128 51 10 177 4 218 -11z m-3107 -4 c14 -10 118 -222 111 -229
-3 -3 -1 -6 5 -6 5 0 18 -19 28 -42 10 -24 24 -50 31 -58 6 -8 17 -32 24 -53
11 -36 13 -37 30 -22 10 9 42 63 70 118 29 56 56 109 61 117 4 8 25 49 44 90
20 41 40 79 45 84 12 12 180 9 195 -4 19 -16 15 -747 -4 -759 -7 -5 -51 -9
-96 -10 -72 -2 -84 1 -89 16 -2 10 -5 82 -5 161 0 137 -4 168 -20 158 -4 -3
-35 -61 -70 -130 l-62 -124 -47 -7 c-74 -10 -96 4 -137 84 -19 39 -35 77 -35
86 0 8 -4 15 -9 15 -5 0 -15 15 -21 34 -13 41 -35 63 -42 44 -3 -7 -5 -82 -6
-166 -1 -85 -4 -158 -7 -163 -8 -12 -182 -12 -190 1 -10 17 -10 749 0 759 6 5
21 11 35 13 35 5 149 0 161 -7z m2471 -4 c4 -3 8 -174 9 -380 1 -304 -1 -375
-12 -382 -18 -11 -160 -11 -177 -1 -15 10 -14 -1 -14 312 0 382 1 443 9 451
16 16 169 16 185 0z m-1518 1 c3 -5 6 -114 7 -243 1 -169 5 -241 14 -259 42
-81 126 -111 212 -75 79 33 92 83 86 350 -3 149 -1 211 8 221 16 19 172 20
188 0 8 -9 10 -89 8 -267 -4 -238 -5 -258 -27 -312 -29 -74 -101 -148 -161
-167 -24 -7 -48 -16 -54 -19 -22 -12 -44 -15 -130 -14 -75 1 -100 5 -150 27
-32 15 -68 35 -78 44 -37 33 -93 128 -104 174 -14 66 -21 516 -8 538 7 12 181
14 189 2z m2659 -585 c37 -43 38 -112 2 -156 -29 -33 -79 -54 -116 -47 -13 3
-27 5 -31 5 -3 1 -20 15 -37 32 -31 31 -41 69 -19 69 6 0 4 6 -6 13 -14 10
-15 18 -7 40 6 15 15 27 21 27 5 0 10 6 10 14 0 8 17 23 37 33 49 26 107 14
146 -30z"/>
<path d="M4292 3260 c0 -14 2 -19 5 -12 2 6 2 18 0 25 -3 6 -5 1 -5 -13z"/>
<path d="M4293 2995 c0 -22 2 -30 4 -17 2 12 2 30 0 40 -3 9 -5 -1 -4 -23z"/>
<path d="M4240 2945 c0 -8 2 -15 4 -15 2 0 6 7 10 15 3 8 1 15 -4 15 -6 0 -10
-7 -10 -15z"/>
<path d="M4387 2911 c-4 -17 -3 -21 5 -13 5 5 8 16 6 23 -3 8 -7 3 -11 -10z"/>
<path d="M5311 3204 c0 -11 3 -14 6 -6 3 7 2 16 -1 19 -3 4 -6 -2 -5 -13z"/>
<path d="M5360 3191 c0 -25 6 -27 13 -6 4 8 2 17 -3 20 -6 4 -10 -3 -10 -14z"/>
<path d="M5306 3165 c-3 -8 -1 -15 4 -15 6 0 10 7 10 15 0 8 -2 15 -4 15 -2 0
-6 -7 -10 -15z"/>
<path d="M5647 2733 c-4 -3 -7 -11 -7 -17 0 -6 5 -5 12 2 6 6 9 14 7 17 -3 3
-9 2 -12 -2z"/>
<path d="M5783 2725 c0 -8 4 -12 9 -9 4 3 8 9 8 15 0 5 -4 9 -8 9 -5 0 -9 -7
-9 -15z"/>
<path d="M5210 2702 c0 -17 3 -33 8 -35 9 -6 8 50 -1 60 -4 3 -7 -8 -7 -25z"/>
<path d="M5691 2704 c0 -11 3 -14 6 -6 3 7 2 16 -1 19 -3 4 -6 -2 -5 -13z"/>
<path d="M5651 2684 c0 -11 3 -14 6 -6 3 7 2 16 -1 19 -3 4 -6 -2 -5 -13z"/>
<path d="M5301 2654 c0 -11 3 -14 6 -6 3 7 2 16 -1 19 -3 4 -6 -2 -5 -13z"/>
<path d="M2382 2995 c0 -16 2 -22 5 -12 2 9 2 23 0 30 -3 6 -5 -1 -5 -18z"/>
<path d="M2470 3005 c0 -8 5 -15 10 -15 6 0 10 7 10 15 0 8 -4 15 -10 15 -5 0
-10 -7 -10 -15z"/>
<path d="M2523 2975 c0 -27 2 -38 4 -22 2 15 2 37 0 50 -2 12 -4 0 -4 -28z"/>
<path d="M2376 2935 c4 -8 8 -15 10 -15 2 0 4 7 4 15 0 8 -4 15 -10 15 -5 0
-7 -7 -4 -15z"/>
<path d="M3095 2831 c-3 -5 -1 -12 5 -16 5 -3 10 1 10 9 0 18 -6 21 -15 7z"/>
<path d="M2762 2760 c0 -14 2 -19 5 -12 2 6 2 18 0 25 -3 6 -5 1 -5 -13z"/>
<path d="M4860 2755 c0 -8 2 -15 4 -15 2 0 6 7 10 15 3 8 1 15 -4 15 -6 0 -10
-7 -10 -15z"/>
<path d="M4921 2684 c0 -11 3 -14 6 -6 3 7 2 16 -1 19 -3 4 -6 -2 -5 -13z"/>
<path d="M4962 2670 c0 -14 2 -19 5 -12 2 6 2 18 0 25 -3 6 -5 1 -5 -13z"/>
<path d="M4918 2635 c-6 -30 -3 -43 8 -33 3 4 4 19 2 35 l-3 28 -7 -30z"/>
<path d="M3841 3094 c0 -11 3 -14 6 -6 3 7 2 16 -1 19 -3 4 -6 -2 -5 -13z"/>
<path d="M3790 3090 c0 -5 5 -10 11 -10 5 0 7 5 4 10 -3 6 -8 10 -11 10 -2 0
-4 -4 -4 -10z"/>
<path d="M3311 2914 c0 -11 3 -14 6 -6 3 7 2 16 -1 19 -3 4 -6 -2 -5 -13z"/>
<path d="M3360 2907 c0 -14 5 -29 10 -32 7 -4 8 3 4 22 -9 38 -14 42 -14 10z"/>
<path d="M3401 2914 c0 -11 3 -14 6 -6 3 7 2 16 -1 19 -3 4 -6 -2 -5 -13z"/>
<path d="M3408 2785 c-3 -14 -2 -27 1 -30 4 -2 8 10 9 26 3 36 -4 38 -10 4z"/>
<path d="M3361 2744 c0 -11 3 -14 6 -6 3 7 2 16 -1 19 -3 4 -6 -2 -5 -13z"/>
<path d="M3701 2684 c0 -11 3 -14 6 -6 3 7 2 16 -1 19 -3 4 -6 -2 -5 -13z"/>
<path d="M5961 2644 c0 -11 3 -14 6 -6 3 7 2 16 -1 19 -3 4 -6 -2 -5 -13z"/>
<path d="M5960 2610 c0 -5 5 -10 11 -10 5 0 7 5 4 10 -3 6 -8 10 -11 10 -2 0
-4 -4 -4 -10z"/>
</g>
</svg>
